<svg width="229" height="401" viewBox="0 0 229 401" fill="none" xmlns="http://www.w3.org/2000/svg">
<g clip-path="url(#clip0_11_4)">
<path d="M46.23 42.885L39.3533 12.3991L37.1102 2.46776C36.9242 1.64847 36.4199 0.936585 35.7084 0.488687C34.997 0.0407883 34.1365 -0.106437 33.3164 0.0794034L29.9288 0.844791L2.7632 6.96779C2.35765 7.05907 1.97407 7.2293 1.6344 7.46874C1.29473 7.70818 1.00562 8.01214 0.783592 8.36325C0.561567 8.71436 0.410986 9.10574 0.340438 9.51502C0.26989 9.9243 0.280767 10.3435 0.372447 10.7485C-1.08595 24.3132 1.79399 36.8265 8.04308 48.5377C8.50461 49.4137 8.99387 50.2897 9.50153 51.1658C9.63588 51.7715 9.94757 52.3236 10.3969 52.7518C10.7752 53.1128 11.2368 53.3749 11.7408 53.5149C12.2448 53.6548 12.7756 53.6683 13.2861 53.5541L16.8491 52.7518L19.046 52.2539L43.8394 46.6657C44.6581 46.4809 45.3699 45.9788 45.8183 45.2698C46.2666 44.5608 46.4147 43.703 46.23 42.885V42.885Z" fill="#E6E6E6"/>
<path d="M43.387 41.1881L36.8333 12.1869L35.2641 5.22476C35.0912 4.45825 34.6207 3.79167 33.9561 3.3715C33.2914 2.95134 32.487 2.81195 31.7195 2.98398L29.6334 3.45428L5.4585 8.90408C4.69122 9.07685 4.02398 9.54686 3.60339 10.2108C3.18281 10.8748 3.04328 11.6784 3.21547 12.4451C3.42775 23.0035 4.53544 32.5845 9.08611 38.4309C9.60406 40.7049 10.7156 42.8013 12.3078 44.5069C13.9 46.2125 15.9159 47.4663 18.1506 48.141C18.2059 48.1594 18.2521 48.1779 18.3075 48.1963C18.3444 48.2055 18.3906 48.224 18.4275 48.2332C20.5308 48.8244 22.7487 48.8815 24.8797 48.3992L41.144 44.729C41.9113 44.5563 42.5785 44.0863 42.9991 43.4223C43.4197 42.7584 43.5592 41.9548 43.387 41.1881V41.1881Z" fill="white"/>
<path d="M19.3021 18.574C19.837 17.9574 20.5573 17.5303 21.3553 17.3565C22.1533 17.1826 22.9862 17.2714 23.7295 17.6096C25.3427 18.4146 25.9686 20.1272 25.7109 21.8302C25.423 23.7326 24.4283 25.4644 24.3379 27.4122C24.2588 29.1169 24.8949 30.908 26.407 31.8257C27.4912 32.4838 28.6072 30.8547 27.5178 30.1934C25.725 29.1053 26.3275 26.7142 26.8475 25.0832C27.4968 23.0467 28.1735 20.9705 27.3702 18.8721C27.0146 17.9935 26.4441 17.218 25.711 16.6165C24.9779 16.015 24.1056 15.6068 23.1738 15.4292C22.2419 15.2516 21.2804 15.3102 20.3771 15.5997C19.4738 15.8892 18.6576 16.4003 18.0032 17.0864C17.1477 18.0079 18.4359 19.5072 19.3021 18.574V18.574Z" fill="#EA55B7"/>
<path d="M28.0044 37.514C29.0956 37.514 29.9802 36.6303 29.9802 35.5402C29.9802 34.4502 29.0956 33.5665 28.0044 33.5665C26.9133 33.5665 26.0287 34.4502 26.0287 35.5402C26.0287 36.6303 26.9133 37.514 28.0044 37.514Z" fill="#EA55B7"/>
<path d="M152.355 381.524L121.076 381.338L110.886 381.278C109.135 381.269 107.699 381.934 107.68 382.764L107.639 384.41L107.295 397.605C107.269 398.429 108.671 399.114 110.422 399.123C123.181 401.208 136.176 401.418 148.996 399.748C149.956 399.632 150.922 399.504 151.893 399.365C152.486 399.374 153.077 399.293 153.645 399.127C154.51 398.86 155.082 398.403 155.097 397.883L155.143 396.153L155.168 395.085L155.482 383.043C155.501 382.213 154.097 381.533 152.355 381.524Z" fill="#FFD037"/>
<path d="M150.043 382.648L120.285 382.476L113.142 382.433C111.505 382.423 110.158 383.044 110.137 383.82L110.111 384.833L109.806 396.576C109.786 397.351 111.097 397.99 112.734 397.999C123.063 399.064 132.649 399.608 139.398 398.154C144.31 398.179 148.643 396.924 150.956 395.045C150.987 395.022 151.015 395.003 151.046 394.979C151.064 394.963 151.092 394.944 151.11 394.928C151.581 394.581 151.972 394.138 152.258 393.629C152.544 393.119 152.718 392.554 152.769 391.972L152.97 384.072C152.991 383.296 151.68 382.658 150.043 382.648Z" fill="#4C93FD"/>
<path d="M122.435 391.26C121.523 390.612 121.427 389.733 122.523 389.113C123.681 388.458 125.494 388.358 127.093 388.664C128.878 389.006 130.333 389.655 132.209 389.911C133.85 390.136 135.742 390.04 136.986 389.444C137.879 389.016 136.552 388.323 135.655 388.752C134.179 389.458 131.991 388.918 130.524 388.498C128.692 387.975 126.827 387.434 124.597 387.574C120.541 387.827 118.425 390.091 120.685 391.694C121.383 392.19 123.142 391.762 122.435 391.259V391.26Z" fill="#333F4F"/>
<path d="M140.974 390.053C142.065 390.053 142.95 389.633 142.95 389.116C142.95 388.599 142.065 388.18 140.974 388.18C139.883 388.18 138.998 388.599 138.998 389.116C138.998 389.633 139.883 390.053 140.974 390.053Z" fill="#333F4F"/>
<path d="M1.77181 152.753C-0.945967 141.349 -0.492724 130.118 4.1611 119.114C4.21023 118.433 4.52766 117.799 5.04377 117.352C5.55988 116.905 6.23252 116.68 6.9141 116.728L32.3442 118.531C33.0257 118.58 33.6599 118.897 34.1076 119.412C34.5553 119.928 34.78 120.6 34.7324 121.281L32.3432 154.92C32.294 155.6 31.9766 156.234 31.4605 156.681C30.9444 157.128 30.2717 157.353 29.5902 157.305L4.16002 155.503C3.47854 155.454 2.84437 155.137 2.39666 154.621C1.94894 154.105 1.72422 153.433 1.77181 152.753Z" fill="#F2F2F2"/>
<path d="M4.44411 142.73C2.26911 137.111 3.65978 129.383 5.98016 121.104C6.02616 120.467 6.32344 119.873 6.8068 119.455C7.29015 119.036 7.9201 118.825 8.55843 118.87L30.4135 120.419C31.0517 120.465 31.6457 120.762 32.065 121.245C32.4843 121.728 32.6948 122.357 32.6502 122.995L30.5241 152.929C30.4781 153.566 30.1808 154.16 29.6974 154.579C29.214 154.998 28.5841 155.208 27.9457 155.163L14.407 154.204C11.5641 153.999 8.91857 152.676 7.05082 150.525C5.18307 148.374 4.24561 145.571 4.44411 142.73V142.73Z" fill="white"/>
<path d="M19.575 144.197C18.9074 144.082 18.2399 143.968 17.5723 143.853C17.8799 143.128 18.0574 142.355 18.0967 141.568C18.4127 137.358 18.4445 133.108 18.6131 128.889C18.6087 128.735 18.5597 128.585 18.4721 128.458C18.3844 128.331 18.2618 128.232 18.1191 128.173C17.9764 128.114 17.8196 128.097 17.6676 128.125C17.5157 128.153 17.3751 128.224 17.2628 128.33C15.5862 129.717 13.9097 131.105 12.2331 132.492C11.4483 133.141 12.5729 134.254 13.3518 133.609C14.5551 132.614 15.7585 131.618 16.9618 130.622C16.8514 133.387 16.7409 136.151 16.6305 138.915C16.5775 140.242 16.7389 141.853 16.1952 143.1C16.1209 143.268 16.0238 143.425 15.9068 143.567C15.1677 143.441 14.4286 143.314 13.6895 143.187C13.1579 143.096 12.4825 143.539 12.7164 144.159C13.2252 145.507 14.7248 145.933 16.0107 145.413C16.1241 145.363 16.2337 145.304 16.3389 145.238L19.1545 145.721C20.1502 145.892 20.578 144.369 19.575 144.197Z" fill="#F2F2F2"/>
<path d="M94.0558 155.913C91.338 144.51 91.7912 133.279 96.445 122.275C96.4942 121.594 96.8116 120.96 97.3277 120.513C97.8438 120.066 98.5164 119.841 99.198 119.889L124.628 121.691C125.31 121.74 125.944 122.058 126.392 122.573C126.839 123.089 127.064 123.761 127.016 124.442L124.627 158.08C124.578 158.761 124.261 159.395 123.744 159.842C123.228 160.289 122.556 160.514 121.874 160.466L96.444 158.664C95.7625 158.614 95.1283 158.297 94.6806 157.782C94.2329 157.266 94.0082 156.594 94.0558 155.913V155.913Z" fill="#F2F2F2"/>
<path d="M96.7281 145.891C94.5531 140.272 95.9437 132.544 98.2641 124.265C98.3101 123.628 98.6074 123.034 99.0908 122.615C99.5741 122.197 100.204 121.986 100.842 122.031L122.697 123.58C123.336 123.626 123.93 123.923 124.349 124.406C124.768 124.889 124.979 125.518 124.934 126.156L122.808 156.09C122.762 156.727 122.465 157.321 121.981 157.74C121.498 158.158 120.868 158.369 120.23 158.324L106.691 157.364C103.848 157.16 101.203 155.837 99.3348 153.686C97.467 151.535 96.5296 148.732 96.7281 145.891V145.891Z" fill="white"/>
<path d="M110.995 140.184C111.286 140.048 111.561 139.882 111.815 139.687C112.493 139.129 112.994 138.386 113.257 137.549C113.521 136.712 113.536 135.817 113.3 134.971C112.274 131.208 107.768 131.185 104.657 131.638C103.653 131.784 104.08 133.307 105.077 133.162C107.174 132.856 110.466 132.61 111.592 134.898C111.849 135.435 111.941 136.037 111.855 136.626C111.769 137.216 111.51 137.766 111.111 138.208C110.633 138.687 110.004 138.986 109.33 139.054C108.678 138.771 107.97 138.639 107.259 138.668C106.526 138.703 106.117 139.768 106.859 140.141C107.516 140.467 108.24 140.638 108.974 140.639C109.583 140.932 110.091 141.398 110.435 141.979C110.779 142.56 110.943 143.23 110.908 143.904C110.837 144.365 110.677 144.808 110.435 145.208C110.193 145.607 109.874 145.954 109.497 146.23C109.12 146.506 108.692 146.704 108.238 146.814C107.784 146.924 107.313 146.944 106.851 146.871C105.857 146.671 105.432 148.194 106.431 148.395C107.113 148.524 107.813 148.513 108.491 148.363C109.169 148.214 109.809 147.929 110.373 147.526C110.938 147.123 111.414 146.61 111.775 146.018C112.136 145.425 112.373 144.767 112.472 144.08C112.534 143.362 112.434 142.638 112.179 141.964C111.923 141.289 111.519 140.681 110.995 140.184V140.184Z" fill="#F2F2F2"/>
<path d="M143.491 371.635L134.544 371.635L130.288 337.158L143.493 337.159L143.491 371.635Z" fill="#FFB6B6"/>
<path d="M143.806 380.96L116.292 380.959V380.611C116.292 377.774 117.42 375.053 119.429 373.047C121.437 371.04 124.161 369.913 127.001 369.913H127.002L132.028 366.104L141.404 369.914L143.806 369.914L143.806 380.96Z" fill="#2F2E41"/>
<path d="M184.623 390.601L175.676 390.6L171.42 356.124L184.625 356.125L184.623 390.601Z" fill="#FFB6B6"/>
<path d="M184.938 399.925L157.424 399.924V399.576C157.424 396.739 158.553 394.018 160.561 392.012C162.569 390.005 165.293 388.878 168.133 388.878H168.134L173.16 385.069L182.537 388.879L184.939 388.879L184.938 399.925Z" fill="#2F2E41"/>
<path d="M74.5419 114.888C75.1565 115.575 75.913 116.119 76.759 116.485C77.605 116.85 78.5204 117.028 79.4418 117.005C80.3632 116.982 81.2686 116.76 82.0955 116.353C82.9225 115.946 83.6511 115.365 84.231 114.649L114.738 123.324L119.215 115.484L82.9055 105.445C81.627 104.56 80.0677 104.174 78.5232 104.36C76.9787 104.546 75.5562 105.292 74.5254 106.456C73.4945 107.62 72.9268 109.121 72.9298 110.675C72.9329 112.229 73.5065 113.728 74.5419 114.888V114.888Z" fill="#FFB6B6"/>
<path d="M153.875 187.449L121.774 260.771L118.083 272.361L129.244 353.709L147.257 352.83L147.217 342.398C147.217 342.398 142.93 340.076 147.203 338.814C151.476 337.553 151.296 334.351 147.167 329.63C143.039 324.91 146.974 279.736 146.974 279.736C146.974 279.736 163.974 263.473 162.122 259.225C160.27 254.976 163.708 254.976 163.708 254.976C163.708 254.976 167.373 254.321 167.513 252.541C167.653 250.762 170.369 247.183 170.369 247.183L169.418 372.47H184.961C184.961 372.47 192.067 360.674 190.67 358.135C189.274 355.597 187.321 355.348 190.67 352.311C194.02 349.275 198.936 351.76 196.741 346.039C194.547 340.319 195.111 278.59 195.111 278.59C195.111 278.59 203.757 242.768 198.415 240.336C193.073 237.903 195.729 238.247 198.883 234.914C202.038 231.582 196.688 231.886 199.363 229.363C202.038 226.84 202.146 197.148 202.146 197.148L153.875 187.449Z" fill="#2F2E41"/>
<path d="M204.566 208.09C182.065 208.037 162.759 213.089 140.258 213.037C141.724 202.901 146.847 187.014 148.312 176.876C150.373 162.617 148.775 154.106 150.831 139.847C151.036 138.451 151.237 137.06 151.437 135.664C152.249 130.027 150.303 124.39 153.794 118.437C155.281 115.898 157.755 113.306 161.852 110.63C170.363 111.494 170.216 107.659 178.727 108.523L181.543 114.128C181.901 116.256 183.193 117.642 184.944 118.69C188.546 120.866 194.093 121.625 197.426 124.569C201.613 128.268 201.334 134.184 200.089 139.958C199.646 142.012 199.082 144.046 198.549 145.958C194.263 161.365 199.742 173.12 204.21 187.412C204.634 188.767 200.621 194.008 201.046 195.314C201.767 197.527 204.348 200.28 203.937 201.775C203.428 203.627 202.921 205.368 204.566 208.09Z" fill="#EA55B7"/>
<path d="M200.089 139.958L150.831 139.847L149.249 139.842L90.8325 118.4L98.308 118.653L101.778 110.662L103.45 106.821L137.879 118.316L153.794 118.437L183.8 118.659C184.185 118.664 184.564 118.674 184.944 118.69C188.546 120.866 194.093 121.625 197.426 124.569C201.613 128.268 201.334 134.184 200.089 139.958Z" fill="#EA55B7"/>
<path d="M166.436 106.994C175.276 106.994 182.443 99.8343 182.443 91.0024C182.443 82.1706 175.276 75.011 166.436 75.011C157.595 75.011 150.428 82.1706 150.428 91.0024C150.428 99.8343 157.595 106.994 166.436 106.994Z" fill="#FFB6B6"/>
<path d="M164.161 104.748L165.465 108.913C168.356 107.487 176.559 105.508 178.967 103.366C181.374 101.223 183.236 98.2659 183.35 95.0468C183.409 93.3842 183.006 91.7071 183.283 90.0667C183.595 88.213 184.74 86.606 185.265 84.8007C185.755 82.9097 185.57 80.9071 184.743 79.1375C183.915 77.3678 182.495 75.9417 180.729 75.1045C178.075 73.9396 175.041 74.2666 172.156 73.985C169.272 73.7035 166.054 72.3999 165.242 69.6203C164.938 68.5811 164.973 67.3558 164.044 66.6753C163.577 66.3635 163.011 66.2354 162.455 66.3157C161.899 66.396 161.393 66.679 161.033 67.1102C160.99 67.1587 160.949 67.2078 160.91 67.2572C158.468 70.3174 153.866 70.5446 151.457 67.4581C151.3 67.2564 151.149 67.05 151.004 66.839C150.498 67.3124 150.09 67.8813 149.806 68.5129C149.521 69.1444 149.365 69.8261 149.345 70.5184C149.326 71.2108 149.444 71.9001 149.693 72.5465C149.942 73.1929 150.317 73.7836 150.796 74.2844C149.886 74.2848 149.003 73.979 148.289 73.4163C147.575 72.8536 147.071 72.0668 146.859 71.1831C145.755 72.7073 144.621 74.297 144.266 76.145C143.911 77.9931 144.57 80.1789 146.266 80.9967C147.132 81.3386 148.062 81.4906 148.991 81.4425C144.615 86.6141 147.241 86.4653 156.104 81.5775C160.501 81.6609 158.764 85.7425 158.821 90.1354C160.89 89.9368 163.022 89.7425 164.978 90.6131C165.89 90.9965 166.658 91.6558 167.175 92.4983C168.468 94.7174 167.185 97.0237 166.048 99.0421C165.076 100.767 164.154 102.845 164.961 104.654" fill="#2F2E41"/>
<path d="M135.027 238.807C135.834 238.361 136.534 237.746 137.079 237.004C137.624 236.262 138.002 235.41 138.185 234.507C138.368 233.605 138.353 232.674 138.141 231.778C137.929 230.882 137.524 230.042 136.955 229.318L152.226 201.545L145.575 195.436L127.679 228.556C126.529 229.603 125.805 231.035 125.642 232.581C125.479 234.127 125.889 235.678 126.795 236.942C127.701 238.205 129.039 239.093 130.556 239.437C132.073 239.781 133.664 239.556 135.027 238.807L135.027 238.807Z" fill="#FFB6B6"/>
<path d="M172.272 108.928L168.713 172.63L151.564 212.663L140.402 227.45L141.671 220.749L133.977 216.903L133.255 216.545L143.495 190.631L146.586 182.814L148.025 159.281L149.386 137.029C149.62 133.199 150.648 129.46 152.404 126.048C154.159 122.636 156.604 119.624 159.585 117.205L168.127 110.272L172.272 108.928Z" fill="#EA55B7"/>
<path d="M52.3961 109.027C49.6784 97.6241 50.1316 86.3925 54.7854 75.3885C54.8346 74.7077 55.152 74.0742 55.6681 73.6269C56.1842 73.1797 56.8569 72.9552 57.5384 73.0027L82.9686 74.8053C83.6501 74.8544 84.2842 75.1716 84.7319 75.6872C85.1796 76.2027 85.4043 76.8747 85.3568 77.5556L82.9675 111.194C82.9184 111.875 82.6009 112.509 82.0848 112.956C81.5687 113.403 80.8961 113.628 80.2145 113.58L54.7844 111.778C54.1029 111.728 53.4687 111.411 53.021 110.896C52.5733 110.38 52.3486 109.708 52.3961 109.027V109.027Z" fill="#F2F2F2"/>
<path d="M55.0685 99.0052C52.8935 93.386 54.2841 85.6576 56.6045 77.3792C56.6505 76.7416 56.9478 76.1483 57.4311 75.7294C57.9145 75.3105 58.5444 75.1002 59.1828 75.1448L81.0378 76.694C81.6761 76.7399 82.27 77.0369 82.6893 77.5198C83.1087 78.0027 83.3191 78.632 83.2746 79.2697L81.1485 109.204C81.1024 109.841 80.8051 110.435 80.3218 110.853C79.8384 111.272 79.2084 111.483 78.5701 111.438L65.0313 110.478C62.1884 110.274 59.5429 108.951 57.6752 106.8C55.8074 104.649 54.87 101.846 55.0685 99.0052V99.0052Z" fill="white"/>
<path d="M68.5082 83.9415C66.2679 83.1648 63.7767 84.9348 63.5224 87.2296C63.2342 89.8306 66.0349 91.8839 68.4594 91.1771C69.4348 90.8927 69.0198 89.3671 68.0389 89.6531C66.2617 90.1712 64.3659 88.2542 65.3877 86.5402C65.6198 86.1265 65.9726 85.7933 66.399 85.5848C66.8255 85.3764 67.3053 85.3027 67.7747 85.3734C68.1733 85.4837 68.5404 85.6858 68.8466 85.9634C69.1529 86.241 69.3897 86.5865 69.5382 86.9721C70.4101 88.9352 69.3739 90.9282 68.0003 92.355C67.217 93.1688 66.2979 93.8012 65.4536 94.5429C65.0431 94.8528 64.7022 95.2451 64.4528 95.6946C64.2034 96.1441 64.051 96.6408 64.0055 97.1528C64.0278 97.7285 64.2072 98.2872 64.5243 98.7684C64.8415 99.2496 65.2843 99.635 65.8049 99.8829C67.1536 100.576 68.6878 100.356 70.1226 100.125C71.1251 99.9637 70.6997 98.4405 69.7021 98.6009C68.4472 98.8026 66.5683 99.1083 65.7731 97.801C65.0921 96.6816 66.4951 95.6987 67.2596 95.1031C69.1808 93.6065 71.1237 91.6738 71.4122 89.1291C71.6485 87.0445 70.588 84.6625 68.5082 83.9415Z" fill="#EA55B7"/>
<path d="M200.387 391.869C200.632 391.88 200.875 391.816 201.082 391.685C201.29 391.554 201.452 391.362 201.546 391.136C201.641 390.91 201.664 390.66 201.612 390.42C201.559 390.181 201.435 389.963 201.255 389.797L201.173 389.471C201.183 389.445 201.194 389.419 201.205 389.393C201.452 388.81 201.866 388.313 202.395 387.965C202.923 387.616 203.543 387.432 204.177 387.434C204.81 387.436 205.428 387.626 205.954 387.978C206.481 388.33 206.891 388.83 207.133 389.415C208.103 391.748 209.337 394.084 209.641 396.551C209.775 397.641 209.718 398.746 209.474 399.817C211.751 394.855 212.934 389.461 212.942 384.002C212.942 382.632 212.866 381.263 212.713 379.902C212.587 378.786 212.412 377.678 212.189 376.578C210.968 370.608 208.348 365.013 204.542 360.252C202.701 359.248 201.211 357.704 200.275 355.829C199.935 355.154 199.696 354.435 199.563 353.692C199.771 353.719 200.346 350.558 200.189 350.364C200.479 349.925 200.997 349.707 201.313 349.279C202.886 347.149 205.053 347.52 206.184 350.415C208.6 351.633 208.624 353.654 207.141 355.597C206.198 356.834 206.068 358.506 205.241 359.83C205.326 359.939 205.414 360.044 205.499 360.153C207.056 362.153 208.413 364.3 209.55 366.564C209.273 364.028 209.603 361.462 210.513 359.078C211.435 356.856 213.163 354.985 214.684 353.065C215.087 352.549 215.633 352.163 216.255 351.958C216.877 351.752 217.545 351.735 218.176 351.909C218.808 352.083 219.373 352.44 219.801 352.934C220.23 353.429 220.501 354.04 220.582 354.689C220.585 354.717 220.588 354.746 220.591 354.774C220.365 354.901 220.144 355.036 219.928 355.179C219.656 355.361 219.445 355.62 219.323 355.924C219.201 356.227 219.174 356.56 219.245 356.879C219.315 357.198 219.481 357.488 219.72 357.711C219.958 357.935 220.259 358.081 220.582 358.131L220.615 358.136C220.535 358.949 220.392 359.756 220.189 360.548C222.142 368.09 217.927 370.837 211.909 370.96C211.777 371.028 211.647 371.096 211.514 371.161C212.657 374.396 213.374 377.765 213.647 381.185C213.801 383.202 213.792 385.229 213.619 387.245L213.629 387.173C214.065 384.932 215.263 382.909 217.018 381.447C219.626 379.307 223.311 378.518 226.125 376.798C226.424 376.606 226.771 376.504 227.127 376.503C227.482 376.502 227.83 376.603 228.13 376.793C228.43 376.984 228.669 377.256 228.82 377.577C228.97 377.899 229.025 378.257 228.978 378.609L228.967 378.684C228.547 378.855 228.139 379.051 227.744 379.273C227.518 379.4 227.297 379.535 227.08 379.678C226.808 379.86 226.598 380.119 226.476 380.422C226.354 380.725 226.326 381.058 226.397 381.377C226.468 381.696 226.633 381.986 226.872 382.21C227.111 382.433 227.411 382.579 227.735 382.629L227.768 382.634C227.792 382.638 227.812 382.641 227.836 382.645C227.119 384.354 226.113 385.927 224.862 387.296C223.642 393.879 218.399 394.504 212.792 392.587H212.788C212.173 395.258 211.281 397.858 210.128 400.345H200.625C200.591 400.239 200.561 400.13 200.53 400.025C201.41 400.08 202.293 400.028 203.159 399.868C202.454 399.004 201.749 398.133 201.044 397.269C201.029 397.253 201.014 397.236 201 397.218C200.642 396.775 200.281 396.337 199.924 395.894L199.924 395.894C199.904 394.538 200.06 393.185 200.387 391.869L200.387 391.869Z" fill="#A0EE53"/>
<path d="M26.8604 54.0153C26.2005 63.7578 26.5175 74.8149 34.0877 82.0423C35.8615 83.7514 37.9797 85.0629 40.3011 85.8893C41.2631 86.2281 41.6769 84.7017 40.7216 84.3653C36.8328 82.9958 33.7733 79.9862 31.7348 76.4676C29.3452 72.3426 28.4334 67.5841 28.2338 62.8674C28.141 59.9151 28.2107 56.96 28.4424 54.0153C28.5112 53 26.9289 53.0043 26.8604 54.0153V54.0153Z" fill="#3F3D56"/>
<path d="M38.6528 76.3097C40.5293 77.1805 42.496 78.0667 43.9804 79.5474C45.3345 80.8981 46.2799 82.8684 45.7313 84.7937C44.8312 87.9525 40.8227 89.1435 38.0278 89.8968C37.832 89.9581 37.6676 90.0929 37.5694 90.2729C37.4712 90.453 37.4468 90.664 37.5013 90.8617C37.5559 91.0593 37.6851 91.2281 37.8618 91.3324C38.0385 91.4367 38.2488 91.4684 38.4484 91.4207C41.2598 90.663 44.4123 89.6051 46.2487 87.2006C48.4218 84.3553 47.3902 80.605 44.9491 78.2842C43.3765 76.789 41.3983 75.8486 39.4513 74.945C38.5338 74.5192 37.7294 75.8811 38.6528 76.3097H38.6528Z" fill="#3F3D56"/>
</g>
<defs>
<clipPath id="clip0_11_4">
<rect width="229" height="401" fill="white"/>
</clipPath>
</defs>
</svg>
