<svg width="103" height="28" viewBox="0 0 103 28" fill="none" xmlns="http://www.w3.org/2000/svg">
<path d="M5.12 23L0.52 9H2.78L6.24 19.78H5.64L9.02 9H10.62L14 19.78H13.4L16.86 9H19.12L14.52 23H12.92L9.52 12.24H10.12L6.72 23H5.12ZM20.8884 23V13.4H23.0884V23H20.8884ZM21.9884 11.64C21.6151 11.64 21.3018 11.5133 21.0484 11.26C20.8084 11.0067 20.6884 10.6933 20.6884 10.32C20.6884 9.94667 20.8084 9.63333 21.0484 9.38C21.3018 9.12667 21.6151 9 21.9884 9C22.3751 9 22.6884 9.12667 22.9284 9.38C23.1684 9.63333 23.2884 9.94667 23.2884 10.32C23.2884 10.6933 23.1684 11.0067 22.9284 11.26C22.6884 11.5133 22.3751 11.64 21.9884 11.64ZM31.6559 23L27.5959 18.1L31.6359 13.4H34.2559L29.6159 18.68L29.7159 17.42L34.4559 23H31.6559ZM25.5559 23V8.6H27.7559V23H25.5559ZM35.4392 23V13.4H37.6392V23H35.4392ZM36.5392 11.64C36.1659 11.64 35.8526 11.5133 35.5992 11.26C35.3592 11.0067 35.2392 10.6933 35.2392 10.32C35.2392 9.94667 35.3592 9.63333 35.5992 9.38C35.8526 9.12667 36.1659 9 36.5392 9C36.9259 9 37.2392 9.12667 37.4792 9.38C37.7192 9.63333 37.8392 9.94667 37.8392 10.32C37.8392 10.6933 37.7192 11.0067 37.4792 11.26C37.2392 11.5133 36.9259 11.64 36.5392 11.64ZM44.0067 23L39.4067 9H41.6667L45.1267 19.78H44.5267L47.9067 9H49.5067L52.8867 19.78H52.2867L55.7467 9H58.0067L53.4067 23H51.8067L48.4067 12.24H49.0067L45.6067 23H44.0067ZM59.7752 23V13.4H61.9752V23H59.7752ZM60.8752 11.64C60.5018 11.64 60.1885 11.5133 59.9352 11.26C59.6952 11.0067 59.5752 10.6933 59.5752 10.32C59.5752 9.94667 59.6952 9.63333 59.9352 9.38C60.1885 9.12667 60.5018 9 60.8752 9C61.2618 9 61.5752 9.12667 61.8152 9.38C62.0552 9.63333 62.1752 9.94667 62.1752 10.32C62.1752 10.6933 62.0552 11.0067 61.8152 11.26C61.5752 11.5133 61.2618 11.64 60.8752 11.64ZM63.7227 21.8L69.0827 14.6H71.6627L66.3027 21.8H63.7227ZM63.7227 23V21.8L65.7227 21H71.5427V23H63.7227ZM64.0827 15.4V13.4H71.6627V14.6L69.6627 15.4H64.0827ZM77.3298 23.2C76.4632 23.2 75.6765 22.98 74.9698 22.54C74.2765 22.1 73.7232 21.5067 73.3098 20.76C72.9098 20 72.7098 19.1533 72.7098 18.22C72.7098 17.2733 72.9098 16.4267 73.3098 15.68C73.7232 14.92 74.2765 14.32 74.9698 13.88C75.6765 13.4267 76.4632 13.2 77.3298 13.2C78.0632 13.2 78.7098 13.36 79.2698 13.68C79.8432 13.9867 80.2965 14.4133 80.6298 14.96C80.9632 15.5067 81.1298 16.1267 81.1298 16.82V19.58C81.1298 20.2733 80.9632 20.8933 80.6298 21.44C80.3098 21.9867 79.8632 22.42 79.2898 22.74C78.7165 23.0467 78.0632 23.2 77.3298 23.2ZM77.6898 21.12C78.5032 21.12 79.1565 20.8467 79.6498 20.3C80.1565 19.7533 80.4098 19.0533 80.4098 18.2C80.4098 17.6267 80.2965 17.12 80.0698 16.68C79.8432 16.24 79.5232 15.9 79.1098 15.66C78.7098 15.4067 78.2365 15.28 77.6898 15.28C77.1565 15.28 76.6832 15.4067 76.2698 15.66C75.8698 15.9 75.5498 16.24 75.3098 16.68C75.0832 17.12 74.9698 17.6267 74.9698 18.2C74.9698 18.7733 75.0832 19.28 75.3098 19.72C75.5498 20.16 75.8698 20.5067 76.2698 20.76C76.6832 21 77.1565 21.12 77.6898 21.12ZM80.2698 23V20.42L80.6498 18.08L80.2698 15.76V13.4H82.4698V23H80.2698ZM84.9114 23V13.4H87.1114V23H84.9114ZM87.1114 17.66L86.3514 17.28C86.3514 16.0667 86.6181 15.0867 87.1514 14.34C87.6981 13.58 88.5181 13.2 89.6114 13.2C90.0914 13.2 90.5247 13.2867 90.9114 13.46C91.2981 13.6333 91.6581 13.9133 91.9914 14.3L90.5514 15.78C90.3781 15.5933 90.1847 15.46 89.9714 15.38C89.7581 15.3 89.5114 15.26 89.2314 15.26C88.6181 15.26 88.1114 15.4533 87.7114 15.84C87.3114 16.2267 87.1114 16.8333 87.1114 17.66Z" fill="white"/>
<path d="M101 23C99.8954 23 99 22.1046 99 21V2C99 0.89543 99.8954 0 101 0C102.105 0 103 0.895432 103 2V21C103 22.1046 102.105 23 101 23Z" fill="#4C93FD"/>
<rect x="93" y="13" width="10" height="10" rx="5" fill="#EA55B7"/>
</svg>
